<svg width="500" height="500" viewBox="0 0 500 500" fill="none" xmlns="http://www.w3.org/2000/svg">
	<title>شعار عنصر</title>
	<g>
		<g>
			<path d="M250 167L129.5 217.5V238.5C129.5 238.5 149 230 165 230C181 230 200.5 238.5 200.5 238.5V267H165V317C165 317 175 335 200.5 335C226 335 236 317 236 317V267H264V317C264 317 274 335 299.5 335C325 335 335 317 335 317V267H299.5V238.5C299.5 238.5 319 230 335 230C351 230 370.5 238.5 370.5 238.5V217.5L250 167Z" fill="#3E5A56"/>
			<path d="M250 167L370.5 217.5V238.5C370.5 238.5 351 230 335 230C319 230 299.5 238.5 299.5 238.5V267H335V317C335 317 325 335 299.5 335C274 335 264 317 264 317V267H236V317C236 317 226 335 200.5 335C175 335 165 317 165 317V267H200.5V238.5C200.5 238.5 181 230 165 230C149 230 129.5 238.5 129.5 238.5V217.5L250 167Z" fill="#F28C4C"/>
			<circle cx="200.5" cy="235" r="10" fill="white"/>
			<circle cx="250" cy="205" r="10" fill="white"/>
			<circle cx="299.5" cy="235" r="10" fill="white"/>
		</g>

		<g>
			<path d="M417.328 376.048C414.328 371.52 408.44 369.144 399.928 369.144C388.64 369.144 381.536 374.256 378.656 384.48C377.888 387.168 377.504 390.624 377.504 394.848V405.696C377.504 410.304 378.464 414.048 380.384 416.928C383.648 421.344 389.408 423.552 397.664 423.552C402.08 423.552 406.112 423.168 409.76 422.4L413.024 421.632V430.08H417.44V420.672L414.368 421.44C410.72 422.208 406.88 422.592 402.848 422.592C394.208 422.592 388.448 420.384 385.568 415.968C383.84 413.28 382.976 409.728 382.976 405.312V403.776H421.472V395.904C421.472 388.416 420.08 381.8 417.328 376.048ZM382.976 394.848C382.976 390.624 383.36 387.168 384.128 384.48C387.008 374.256 394.112 369.144 405.4 369.144C413.912 369.144 419.8 371.52 422.8 376.048C425.552 381.8 426.944 388.416 426.944 395.904V403.776H382.976V394.848Z" fill="#3E5A56"/>
			<path d="M365.424 431.04V394.272H370.896V431.04H365.424ZM365.424 385.632V378.144H370.896V385.632H365.424Z" fill="#3E5A56"/>
			<path d="M329.632 431.04V394.272H335.104V431.04H329.632ZM329.632 385.632V378.144H335.104V385.632H329.632ZM341.152 385.632V378.144H346.624V385.632H341.152Z" fill="#3E5A56"/>
			<path d="M285.984 431.04H253.888V425.568H285.984V431.04ZM285.984 414.144H253.888V408.672H285.984V414.144ZM294.048 431.04H299.52V394.272H294.048V431.04Z" fill="#3E5A56"/>
			<path d="M129.856 427.584C129.856 433.344 128.512 438.144 125.824 441.984C123.136 445.632 119.488 447.552 114.88 447.744H112V453.216H114.88C122.176 453.024 127.552 450.144 131.008 444.576C134.464 439.008 136.192 431.904 136.192 423.264V394.272H130.72V423.264C130.72 424.8 130.528 426.144 130.144 427.296C130.144 427.392 130.048 427.488 129.856 427.584Z" fill="#3E5A56"/>
		</g>
		<circle cx="256" cy="453" r="3.5" fill="#F28C4C"/>
		<circle cx="267" cy="453" r="3.5" fill="#F28C4C"/>
	</g>
</svg>